<svg xmlns="http://www.w3.org/2000/svg" width="512" height="512" viewBox="0 0 512 512" role="img" aria-label="Routuft travel mascot icon"><title>Routuft — travel/globe/map icon concept</title><rect width="512" height="512" rx="104" fill="#17385E"/><path d="M340 345C450 361 466 250 402 206C365 180 347 219 363 239" fill="none" stroke="#F17B55" stroke-width="29" stroke-linecap="round"/><circle fill="#FFE5AC" cx="340" cy="345" r="17"/><circle fill="#FFE5AC" cx="363" cy="239" r="17"/><path fill="#F8BC42" d="M160 180C147 140 186 104 218 139C263 137 286 183 279 226C342 244 345 354 283 398L149 398C102 335 106 239 160 180Z"/><path fill="#28B7B6" d="M192 139L249 96L263 145ZM166 259Q210 221 241 274L217 348L140 340Z"/><path fill="#F17B55" d="M157 180L123 191L157 207Z"/><ellipse fill="#17385E" cx="188" cy="180" rx="11" ry="16"/></svg>