<svg xmlns="http://www.w3.org/2000/svg" width="512" height="512" viewBox="0 0 512 512" role="img" aria-label="Atlasnookle travel mascot icon"><title>Atlasnookle — travel/globe/map icon concept</title><rect width="512" height="512" rx="104" fill="#17385E"/><path d="M161 168V120Q161 88 192 88H291Q324 88 324 120V168" fill="none" stroke="#24ACA9" stroke-width="26"/><path fill="#ED7453" d="M113 157H314Q341 157 341 184V397H134Q109 397 109 372Z"/><path fill="#FFE9BC" d="M325 183L393 159V366L339 390ZM320 186L373 182V373L335 386Z"/><path d="M157 328Q202 240 247 294T300 252" fill="none" stroke="#F9BA3B" stroke-width="22" stroke-linecap="round"/><circle fill="#17385E" cx="157" cy="328" r="14"/><circle fill="#17385E" cx="300" cy="252" r="14"/><rect fill="#17385E" x="181" y="202" width="15" height="25" rx="7"/><rect fill="#17385E" x="238" y="202" width="15" height="25" rx="7"/></svg>