<svg xmlns="http://www.w3.org/2000/svg" width="512" height="512" viewBox="0 0 512 512" role="img" aria-label="Terrapodlet travel mascot icon"><title>Terrapodlet — travel/globe/map icon concept</title><rect width="512" height="512" rx="104" fill="#FFE6B9"/><ellipse fill="#F77956" cx="178" cy="364" rx="32" ry="20"/><ellipse fill="#F77956" cx="322" cy="364" rx="32" ry="20"/><path fill="#27B8B8" d="M110 318C98 149 373 95 409 318Z"/><path fill="#FBC247" d="M164 190L204 167L221 196L196 226L183 263L156 247ZM308 180L348 209L335 240L313 230L297 260L277 242Z"/><path d="M125 278Q257 311 392 266M236 150Q283 223 259 314" fill="none" stroke="#FFE7B5" stroke-width="10"/><ellipse fill="#253F6A" cx="101" cy="313" rx="47" ry="44"/><rect fill="#FFE7B5" x="78" y="299" width="19" height="10" rx="5"/><rect fill="#FFE7B5" x="107" y="299" width="19" height="10" rx="5"/></svg>