<svg xmlns="http://www.w3.org/2000/svg" width="1440" height="1273" viewBox="0 0 1440 1273"><rect width="100%" height="100%" fill="#FAF7EE"/><g font-family="Arial,sans-serif" fill="#243D36">
<text x="28" y="42" font-size="28">Miami — exact ground colour references</text>
<text x="28" y="72" font-size="15">Neutral sRGB albedo: colour darkening alone; wet sheen and lighting are separate. Snow covers the substrate.</text>
<text x="400" y="119" font-size="17">DRY</text>
<text x="735" y="119" font-size="17">LIGHT RAIN · −10% Y</text>
<text x="1070" y="119" font-size="17">SOAKED · −15% Y</text>
<text x="28" y="162" font-size="16">lawn</text>
<rect x="400" y="139" width="130" height="30" rx="4" fill="#758E5C"/><text x="542" y="161" font-size="16">#758E5C</text>
<rect x="735" y="139" width="130" height="30" rx="4" fill="#6F8757"/><text x="877" y="161" font-size="16">#6F8757</text>
<rect x="1070" y="139" width="130" height="30" rx="4" fill="#6C8455"/><text x="1212" y="161" font-size="16">#6C8455</text>
<text x="28" y="205" font-size="16">parkway-turf</text>
<rect x="400" y="182" width="130" height="30" rx="4" fill="#708958"/><text x="542" y="204" font-size="16">#708958</text>
<rect x="735" y="182" width="130" height="30" rx="4" fill="#6B8354"/><text x="877" y="204" font-size="16">#6B8354</text>
<rect x="1070" y="182" width="130" height="30" rx="4" fill="#687F51"/><text x="1212" y="204" font-size="16">#687F51</text>
<text x="28" y="248" font-size="16">sidewalk-concrete</text>
<rect x="400" y="225" width="130" height="30" rx="4" fill="#C9C2AE"/><text x="542" y="247" font-size="16">#C9C2AE</text>
<rect x="735" y="225" width="130" height="30" rx="4" fill="#C0B9A6"/><text x="877" y="247" font-size="16">#C0B9A6</text>
<rect x="1070" y="225" width="130" height="30" rx="4" fill="#BBB4A2"/><text x="1212" y="247" font-size="16">#BBB4A2</text>
<text x="28" y="291" font-size="16">driveway-concrete</text>
<rect x="400" y="268" width="130" height="30" rx="4" fill="#C1BAA7"/><text x="542" y="290" font-size="16">#C1BAA7</text>
<rect x="735" y="268" width="130" height="30" rx="4" fill="#B8B19F"/><text x="877" y="290" font-size="16">#B8B19F</text>
<rect x="1070" y="268" width="130" height="30" rx="4" fill="#B3AD9B"/><text x="1212" y="290" font-size="16">#B3AD9B</text>
<text x="28" y="334" font-size="16">driveway-asphalt</text>
<rect x="400" y="311" width="130" height="30" rx="4" fill="#717571"/><text x="542" y="333" font-size="16">#717571</text>
<rect x="735" y="311" width="130" height="30" rx="4" fill="#6C6F6C"/><text x="877" y="333" font-size="16">#6C6F6C</text>
<rect x="1070" y="311" width="130" height="30" rx="4" fill="#696C69"/><text x="1212" y="333" font-size="16">#696C69</text>
<text x="28" y="377" font-size="16">driveway-brick</text>
<rect x="400" y="354" width="130" height="30" rx="4" fill="#AE8162"/><text x="542" y="376" font-size="16">#AE8162</text>
<rect x="735" y="354" width="130" height="30" rx="4" fill="#A67B5D"/><text x="877" y="376" font-size="16">#A67B5D</text>
<rect x="1070" y="354" width="130" height="30" rx="4" fill="#A2785B"/><text x="1212" y="376" font-size="16">#A2785B</text>
<text x="28" y="420" font-size="16">curb-concrete</text>
<rect x="400" y="397" width="130" height="30" rx="4" fill="#C1BAA8"/><text x="542" y="419" font-size="16">#C1BAA8</text>
<rect x="735" y="397" width="130" height="30" rx="4" fill="#B8B1A0"/><text x="877" y="419" font-size="16">#B8B1A0</text>
<rect x="1070" y="397" width="130" height="30" rx="4" fill="#B3AD9C"/><text x="1212" y="419" font-size="16">#B3AD9C</text>
<text x="28" y="463" font-size="16">gutter-concrete</text>
<rect x="400" y="440" width="130" height="30" rx="4" fill="#B0AC9A"/><text x="542" y="462" font-size="16">#B0AC9A</text>
<rect x="735" y="440" width="130" height="30" rx="4" fill="#A8A493"/><text x="877" y="462" font-size="16">#A8A493</text>
<rect x="1070" y="440" width="130" height="30" rx="4" fill="#A4A08F"/><text x="1212" y="462" font-size="16">#A4A08F</text>
<text x="28" y="506" font-size="16">alley-concrete</text>
<rect x="400" y="483" width="130" height="30" rx="4" fill="#BCB6A3"/><text x="542" y="505" font-size="16">#BCB6A3</text>
<rect x="735" y="483" width="130" height="30" rx="4" fill="#B3AE9B"/><text x="877" y="505" font-size="16">#B3AE9B</text>
<rect x="1070" y="483" width="130" height="30" rx="4" fill="#AFA997"/><text x="1212" y="505" font-size="16">#AFA997</text>
<text x="28" y="549" font-size="16">alley-asphalt</text>
<rect x="400" y="526" width="130" height="30" rx="4" fill="#6C716D"/><text x="542" y="548" font-size="16">#6C716D</text>
<rect x="735" y="526" width="130" height="30" rx="4" fill="#676C68"/><text x="877" y="548" font-size="16">#676C68</text>
<rect x="1070" y="526" width="130" height="30" rx="4" fill="#646965"/><text x="1212" y="548" font-size="16">#646965</text>
<text x="28" y="592" font-size="16">road-asphalt</text>
<rect x="400" y="569" width="130" height="30" rx="4" fill="#6C736F"/><text x="542" y="591" font-size="16">#6C736F</text>
<rect x="735" y="569" width="130" height="30" rx="4" fill="#676D6A"/><text x="877" y="591" font-size="16">#676D6A</text>
<rect x="1070" y="569" width="130" height="30" rx="4" fill="#646B67"/><text x="1212" y="591" font-size="16">#646B67</text>
<text x="28" y="635" font-size="16">road-patch</text>
<rect x="400" y="612" width="130" height="30" rx="4" fill="#646B66"/><text x="542" y="634" font-size="16">#646B66</text>
<rect x="735" y="612" width="130" height="30" rx="4" fill="#5F6661"/><text x="877" y="634" font-size="16">#5F6661</text>
<rect x="1070" y="612" width="130" height="30" rx="4" fill="#5D635E"/><text x="1212" y="634" font-size="16">#5D635E</text>
<text x="28" y="678" font-size="16">crack-seal</text>
<rect x="400" y="655" width="130" height="30" rx="4" fill="#515B54"/><text x="542" y="677" font-size="16">#515B54</text>
<rect x="735" y="655" width="130" height="30" rx="4" fill="#4D5650"/><text x="877" y="677" font-size="16">#4D5650</text>
<rect x="1070" y="655" width="130" height="30" rx="4" fill="#4B544E"/><text x="1212" y="677" font-size="16">#4B544E</text>
<text x="28" y="721" font-size="16">mulch</text>
<rect x="400" y="698" width="130" height="30" rx="4" fill="#806E4F"/><text x="542" y="720" font-size="16">#806E4F</text>
<rect x="735" y="698" width="130" height="30" rx="4" fill="#7A694B"/><text x="877" y="720" font-size="16">#7A694B</text>
<rect x="1070" y="698" width="130" height="30" rx="4" fill="#776649"/><text x="1212" y="720" font-size="16">#776649</text>
<text x="28" y="764" font-size="16">gravel</text>
<rect x="400" y="741" width="130" height="30" rx="4" fill="#C1B59A"/><text x="542" y="763" font-size="16">#C1B59A</text>
<rect x="735" y="741" width="130" height="30" rx="4" fill="#B8AD93"/><text x="877" y="763" font-size="16">#B8AD93</text>
<rect x="1070" y="741" width="130" height="30" rx="4" fill="#B3A88F"/><text x="1212" y="763" font-size="16">#B3A88F</text>
<text x="28" y="807" font-size="16">sand</text>
<rect x="400" y="784" width="130" height="30" rx="4" fill="#D6C5A5"/><text x="542" y="806" font-size="16">#D6C5A5</text>
<rect x="735" y="784" width="130" height="30" rx="4" fill="#CCBC9D"/><text x="877" y="806" font-size="16">#CCBC9D</text>
<rect x="1070" y="784" width="130" height="30" rx="4" fill="#C7B799"/><text x="1212" y="806" font-size="16">#C7B799</text>
<text x="28" y="850" font-size="16">coral-stone</text>
<rect x="400" y="827" width="130" height="30" rx="4" fill="#D7CCB4"/><text x="542" y="849" font-size="16">#D7CCB4</text>
<rect x="735" y="827" width="130" height="30" rx="4" fill="#CDC3AC"/><text x="877" y="849" font-size="16">#CDC3AC</text>
<rect x="1070" y="827" width="130" height="30" rx="4" fill="#C8BEA7"/><text x="1212" y="849" font-size="16">#C8BEA7</text>
<text x="28" y="893" font-size="16">bed-soil</text>
<rect x="400" y="870" width="130" height="30" rx="4" fill="#A18B63"/><text x="542" y="892" font-size="16">#A18B63</text>
<rect x="735" y="870" width="130" height="30" rx="4" fill="#99845E"/><text x="877" y="892" font-size="16">#99845E</text>
<rect x="1070" y="870" width="130" height="30" rx="4" fill="#96815C"/><text x="1212" y="892" font-size="16">#96815C</text>
<text x="28" y="936" font-size="16">edging</text>
<rect x="400" y="913" width="130" height="30" rx="4" fill="#8E9485"/><text x="542" y="935" font-size="16">#8E9485</text>
<rect x="735" y="913" width="130" height="30" rx="4" fill="#878D7F"/><text x="877" y="935" font-size="16">#878D7F</text>
<rect x="1070" y="913" width="130" height="30" rx="4" fill="#84897B"/><text x="1212" y="935" font-size="16">#84897B</text>
<text x="28" y="979" font-size="16">leaf-gold</text>
<rect x="400" y="956" width="130" height="30" rx="4" fill="#BBA26C"/><text x="542" y="978" font-size="16">#BBA26C</text>
<rect x="735" y="956" width="130" height="30" rx="4" fill="#B29A67"/><text x="877" y="978" font-size="16">#B29A67</text>
<rect x="1070" y="956" width="130" height="30" rx="4" fill="#AE9664"/><text x="1212" y="978" font-size="16">#AE9664</text>
<text x="28" y="1022" font-size="16">leaf-russet</text>
<rect x="400" y="999" width="130" height="30" rx="4" fill="#A67C55"/><text x="542" y="1021" font-size="16">#A67C55</text>
<rect x="735" y="999" width="130" height="30" rx="4" fill="#9E7651"/><text x="877" y="1021" font-size="16">#9E7651</text>
<rect x="1070" y="999" width="130" height="30" rx="4" fill="#9A734F"/><text x="1212" y="1021" font-size="16">#9A734F</text>
<text x="28" y="1053" font-size="21">LAWN CONTRAST · target percentages relative to base linear Y</text>
<rect x="28" y="1071" width="195" height="65" fill="#728B5A"/><text x="28" y="1157" font-size="14">patch-dark</text><text x="28" y="1181" font-size="14">#728B5A · -5% Y</text>
<rect x="260" y="1071" width="195" height="65" fill="#78915E"/><text x="260" y="1157" font-size="14">patch-light</text><text x="260" y="1181" font-size="14">#78915E · +5% Y</text>
<rect x="492" y="1071" width="195" height="65" fill="#738C5B"/><text x="492" y="1157" font-size="14">stripe-dark</text><text x="492" y="1181" font-size="14">#738C5B · -3% Y</text>
<rect x="724" y="1071" width="195" height="65" fill="#77905D"/><text x="724" y="1157" font-size="14">stripe-light</text><text x="724" y="1181" font-size="14">#77905D · +3% Y</text>
<rect x="956" y="1071" width="195" height="65" fill="#728A59"/><text x="956" y="1157" font-size="14">combined-dark-cap</text><text x="956" y="1181" font-size="14">#728A59 · -6% Y</text>
<rect x="1188" y="1071" width="195" height="65" fill="#78925F"/><text x="1188" y="1157" font-size="14">combined-light-cap</text><text x="1188" y="1181" font-size="14">#78925F · +6% Y</text>
</g></svg>